<?xml version="1.0" encoding="UTF-8" standalone="no"?>
<!-- Created with Inkscape (http://www.inkscape.org/) -->

<svg
   width="512"
   height="512"
   viewBox="0 0 135.46666 135.46667"
   version="1.1"
   id="svg1"
   inkscape:version="1.3 (0e150ed6c4, 2023-07-21)"
   sodipodi:docname="player.svg"
   inkscape:export-filename="player.png"
   inkscape:export-xdpi="6"
   inkscape:export-ydpi="6"
   xmlns:inkscape="http://www.inkscape.org/namespaces/inkscape"
   xmlns:sodipodi="http://sodipodi.sourceforge.net/DTD/sodipodi-0.dtd"
   xmlns="http://www.w3.org/2000/svg"
   xmlns:svg="http://www.w3.org/2000/svg">
  <sodipodi:namedview
     id="namedview1"
     pagecolor="#505050"
     bordercolor="#eeeeee"
     borderopacity="1"
     inkscape:showpageshadow="0"
     inkscape:pageopacity="0"
     inkscape:pagecheckerboard="0"
     inkscape:deskcolor="#505050"
     inkscape:document-units="px"
     inkscape:zoom="2.4003906"
     inkscape:cx="260.37429"
     inkscape:cy="261.41579"
     inkscape:window-width="2560"
     inkscape:window-height="1506"
     inkscape:window-x="-11"
     inkscape:window-y="-11"
     inkscape:window-maximized="1"
     inkscape:current-layer="layer1" />
  <defs
     id="defs1" />
  <g
     inkscape:label="Layer 1"
     inkscape:groupmode="layer"
     id="layer1">
    <path
       style="fill:#ffdd55;stroke:#ffdd55;stroke-width:0.132292;paint-order:fill markers stroke"
       d="m 39.570815,1.3227014 c -2.029219,0.2560207 -3.349591,1.1873503 -4.96013,2.3147273 -0.584436,0.4091052 -1.195248,0.7813102 -1.763602,1.2124763 -1.233223,0.9355491 -3.05018,2.464414 -3.41698,4.0783292 -0.228139,1.0038249 -0.09278,2.0570278 -0.110222,3.0863028 -0.01931,1.13883 -0.139558,2.286568 0,3.416979 0.640524,5.188248 2.043014,8.484175 4.629454,12.896339 0.577207,0.984649 1.146916,1.985907 1.873826,2.865853 1.627976,1.970709 3.223242,2.8648 5.40103,4.188552 0.963488,0.58565 4.134916,2.35204 5.180581,2.75563 2.813066,1.085745 5.25449,1.474592 8.266883,1.873827 3.08719,0.409144 5.407572,0.58089 8.487335,0.440899 3.731983,-0.169635 7.397285,-1.074126 11.132736,-1.212477 9.419693,-0.348877 -3.544962,0.449422 7.274858,-0.110223 1.607246,-0.08313 3.972886,-0.124594 5.290805,-1.322702 0.212336,-0.193032 0.481528,-0.382958 0.551127,-0.66135 0.154868,-0.619477 -0.129252,-2.930583 -0.220451,-3.41698 -0.104661,-0.558183 -0.663409,-2.025785 -0.551127,-2.755627 0.08834,-0.574175 1.651952,-0.669901 1.543153,-1.322702 -0.469069,-2.81441 -2.741737,-4.717807 -4.409006,-6.833957 -0.871434,-1.106051 -1.423842,-2.305643 -2.424951,-3.306753 -3.21962,-3.21962 -7.057086,-5.710789 -10.802062,-8.266883 C 69.601364,10.599527 68.597077,10.046189 67.678219,9.3691345 65.933271,8.0833829 66.76723,8.4743518 65.583942,7.0544072 64.719738,6.017363 63.199749,4.5222436 62.166964,3.747654 60.051975,2.1614131 59.922184,2.3326731 57.757958,1.3227014 57.132409,1.0307776 56.553834,0.60832622 55.884132,0.44090042 54.855524,0.18374822 53.843427,0.28790822 52.797828,0.22045022 52.170218,0.17995922 51.550915,0.05015312 50.924001,2.2620012e-8 50.631004,-0.02343998 50.335388,0.02094202 50.0422,2.2620012e-8 48.126069,-0.13686658 46.240768,-0.49620338 44.310495,-0.22045028 43.081952,-0.04494408 42.049482,0.51675882 40.893517,0.88180091 40.450338,1.0217517 40.025597,1.226958 39.570815,1.3227014 38.710816,1.5037535 37.707318,1.0815921 37.256087,1.984052 c -0.103233,0.2064679 0,1.2059761 0,1.5431516"
       id="path1" />
    <path
       style="fill:#ffdd55;stroke:#ffdd55;stroke-width:0.132292;paint-order:fill markers stroke"
       d="m 44.200271,38.027666 c 0.03176,4.301601 -0.110225,8.594889 -0.110225,12.896336 0,1.469668 0.127317,2.944863 0,4.409006 -0.244176,2.808018 -1.637353,5.764379 -2.314729,8.377108 -0.356079,1.373452 -1.006985,5.93231 -1.102251,7.385082 -0.06732,1.026565 0,2.057537 0,3.086303 0,2.131021 0,4.262038 0,6.393059 0,1.175734 0,2.351468 0,3.527202 0,0.293934 0,0.587867 0,0.881801 0,0.03674 -0.03674,0.110225 0,0.110225 0.03674,0 -0.03674,-0.110225 0,-0.110225 0.05196,0 0.07096,0.07619 0.110225,0.110225 1.063091,0.921343 2.101776,1.872142 3.196529,2.755628 1.000731,0.807606 2.018893,1.597562 3.086304,2.314728 2.927884,1.967172 4.832125,2.895555 7.936209,4.519229 1.73225,0.9061 3.831407,1.992649 5.62148,2.865853 0.694253,0.338661 1.363411,0.741992 2.094277,0.992026 1.344216,0.459864 4.524399,0.765834 5.621481,0.66135 1.171009,-0.111525 2.275792,-0.596503 3.416977,-0.881801 0.622509,-0.155625 1.283282,-0.189918 1.873827,-0.440899 0.893371,-0.379682 1.675297,-0.982514 2.535179,-1.432928 0.654426,-0.342794 3.113228,-1.363726 3.747654,-1.984052 1.54255,-1.50827 4.100105,-4.335983 4.739679,-6.723732 0.285824,-1.06708 0.1889,-2.202505 0.220451,-3.306751 0.122058,-4.272013 -0.143827,-8.270407 -1.873827,-12.23499 -0.58521,-1.341101 -1.537155,-2.504866 -2.094277,-3.857879 -0.340665,-0.827325 -0.587867,-1.690118 -0.881801,-2.535176 -0.220451,-0.918544 -0.313682,-1.877309 -0.661352,-2.755628 -0.357265,-0.902568 -0.935482,-1.701623 -1.432926,-2.535179 -3.312763,-5.551114 -1.500362,-2.855365 -4.96013,-6.944183 -1.729711,-2.044202 -1.543151,-1.911072 -1.543151,-4.298778 0,-0.392874 0.104773,-2.163021 0,-2.424954 -0.556095,-1.390234 -2.231247,-1.618321 -3.306754,-2.424951 -0.657418,-0.493064 -0.07459,-1.795475 -0.66135,-2.755627 -0.245356,-0.401489 -0.651121,-0.692155 -0.881801,-1.102252 -0.268687,-0.477663 0.173959,-1.589643 -0.22045,-1.984052 -0.374179,-0.374176 -0.728076,-0.397399 -1.102252,-0.771575 -0.08391,-0.08391 0.109434,-0.550336 0.110226,-0.551127 0.08216,-0.08216 0.22045,-0.07348 0.330676,-0.110226"
       id="path2" />
    <path
       style="fill:#ffdd55;stroke:#ffdd55;stroke-width:0.132292;paint-order:fill markers stroke"
       d="m 78.590505,66.024844 c 2.156934,0 -0.0076,0.04832 4.188556,-0.551127 1.46622,-0.20946 2.954784,-0.270197 4.409003,-0.551124 5.201047,-1.004747 7.529967,-2.231932 13.006566,-3.637431 1.55656,-0.39947 3.15203,-0.633132 4.73968,-0.8818 4.29742,-0.67309 4.87866,-0.272482 9.14869,-1.763602 0.79175,-0.276487 1.44159,-0.864192 2.2045,-1.212477 0.93107,-0.425053 1.92107,-0.708594 2.86585,-1.102249 0.68253,-0.28439 1.28258,-0.758203 1.98405,-0.992026 0.64386,-0.128772 1.25645,-0.220411 1.87383,-0.440901 0.91124,-0.325443 1.66144,-0.946889 2.6454,-1.102252 0.78238,-0.123531 1.55011,-0.0011 2.31473,-0.110225 0.35403,-0.05057 0.51201,-0.202674 0.8818,-0.110226 0.0356,0.0089 0.0299,0.08887 0,0.110226 -0.26856,0.191828 -1.68632,0.851815 -1.7636,1.212477 -0.39485,1.842632 0.89417,4.256296 0.11022,6.172607 -0.54861,1.341043 -1.95896,1.930506 -3.0863,2.645402 -1.291,0.818684 -2.97094,1.694138 -4.18856,2.645402 -1.60343,1.252688 -2.87655,2.926316 -4.73968,3.857879 -0.69634,0.348176 -1.46431,0.530212 -2.2045,0.771575 -0.95023,0.309862 -1.89235,0.655405 -2.86585,0.881804 -1.59862,0.371771 -5.88039,0.289565 -6.61351,0.330673 -2.35493,0.132054 -4.706202,0.329597 -7.054405,0.551127 -3.867727,0.364879 -7.717584,0.962676 -11.573637,1.432925 -1.52445,0.18591 -3.641556,0.670193 -5.070356,0.551127 -0.770104,-0.06418 -1.305581,-0.463494 -2.094277,-0.551127 -0.967674,-0.107518 -2.03884,0.20219 -2.976079,-0.110225"
       id="path3" />
    <path
       style="fill:#ffdd55;stroke:#ffdd55;stroke-width:0.132292;paint-order:fill markers stroke"
       d="m 43.208245,65.253267 c -1.604259,-1.275223 -3.173632,-0.997249 -5.180581,-1.3227 -1.664378,-0.269899 -3.295751,-0.722127 -4.960131,-0.992026 -1.621126,-0.262885 -5.421683,-0.49739 -6.944182,-0.551127 -2.11955,-0.07481 -9.55446,-0.188894 -11.573636,-0.110226 -0.851572,0.03318 -1.689541,0.224973 -2.535178,0.330677 -2.6490576,0.331131 -1.365161,0.01416 -4.2987791,0.992026 -0.2978118,0.09927 -0.6144472,0.16615 -0.881801,0.330676 -0.6963129,0.428501 -1.3026043,1.532795 -1.4329264,2.314726 -0.069801,0.418806 0.1266145,0.92797 -0.1102251,1.322702 -0.1296766,0.216128 -0.421449,0.334997 -0.5511255,0.551124 -0.1653376,0.275564 0.082669,0.137782 0,0.330677 -0.2271065,0.529915 -0.7083187,1.159372 -0.3306755,1.763601 0.5842979,0.934876 1.4356839,0.860123 2.4249525,0.992026 3.2228721,0.429718 1.3722633,0.32924 5.0703551,0.551127 0.880982,0.05286 1.766016,0.03538 2.645403,0.110226 0.849147,0.07227 1.690118,0.220448 2.535177,0.330673 0.955285,0.110226 1.907343,0.253376 2.865853,0.330676 1.320454,0.106487 2.648947,0.09895 3.968104,0.220451 1.474863,0.135843 2.939337,0.367417 4.409005,0.551125 1.543153,0.110225 3.087433,0.205647 4.629454,0.330676 4.755083,0.385546 2.026428,0.330674 5.290806,0.330674 1.410896,0 -0.436316,0.08152 0.771576,-0.220449 0.468833,-0.11721 0.95165,-0.176699 1.432927,-0.22045 0.329317,-0.02994 0.662192,0.02355 0.992027,0 0.186869,-0.01333 0.364548,-0.09326 0.551124,-0.110226 0.856321,-0.07785 1.791107,0 2.645402,0 0.330676,0 0.661352,0 0.992026,0 0.146968,0 0.293934,0 0.440902,0 0.03674,0 0.0986,-0.03486 0.110225,0 0.03486,0.104569 0,0.220451 0,0.330676"
       id="path4" />
    <path
       style="fill:#ffdd55;stroke:#ffdd55;stroke-width:0.132292;paint-order:fill markers stroke"
       d="m 46.955898,87.188066 c -1.297887,1.238258 -2.479931,2.590157 -3.747653,3.857879 -0.79016,0.79016 -1.651423,1.508278 -2.424954,2.314726 -0.954688,0.995315 -1.82926,2.064575 -2.755627,3.086303 -1.572112,1.733947 -3.205314,3.413147 -4.73968,5.180586 -1.369333,1.57733 -2.62854,3.24721 -3.968104,4.8499 -2.775617,3.32083 -5.685577,6.53092 -8.377109,9.92026 -2.697974,3.39745 -3.443974,5.0082 -5.511255,8.37711 -0.319827,0.52119 -0.685641,1.01394 -0.992026,1.54315 -0.09914,0.17123 -0.110698,0.3865 -0.220451,0.55113 -0.08152,0.12228 0,-0.58787 0,-0.44091 0,3.23297 -0.280621,0.58881 2.314728,5.18058 0.484406,0.85703 0.599611,1.60909 0.66135,2.53518 0.022,0.32994 -0.06485,0.66778 0,0.99203 0.08818,0.4409 0.09553,0.0367 0.330676,0.33067 0.226054,0.28257 0.211754,0.71196 0.4409,0.99203 0.214504,0.26217 0.495931,0.46446 0.771576,0.66135 0.218106,0.15579 1.043365,0.69097 1.432927,0.55113 1.253535,-0.44999 2.451498,-1.04724 3.637428,-1.65338 0.471838,-0.24116 0.884225,-0.58427 1.3227,-0.8818 1.332535,-0.90422 2.628205,-1.86236 3.968105,-2.75563 1.402752,-0.93517 4.706313,-2.96937 5.952156,-3.63743 1.332315,-0.71443 2.737676,-1.2854 4.07833,-1.98405 3.778681,-1.96917 3.079533,-1.72267 6.172607,-3.63743 2.079049,-1.28703 2.353131,-1.2529 4.188553,-2.86585 0.585465,-0.5145 1.102252,-1.10225 1.653379,-1.65338 1.432925,-1.43293 2.923103,-2.8108 4.298778,-4.29878 0.429125,-0.46415 0.734835,-1.02877 1.102251,-1.54315 1.138992,-1.24922 2.208247,-2.56578 3.416977,-3.74765 0.451978,-0.44194 1.032778,-0.72929 1.543154,-1.10226 0.444973,-0.32517 0.850114,-0.70847 1.322699,-0.99202 0.634042,-0.38043 1.350013,-0.6116 1.984052,-0.99203 0.400712,-0.24042 1.890062,-1.75969 1.984053,-1.87383 0.73311,-0.8902 0.0743,-2.14626 0.330676,-3.0863 0.203999,-0.74799 0.766709,-0.69925 1.322702,-1.212471 0.194683,-0.17971 0.306565,-0.432983 0.440899,-0.661353 0.233418,-0.396808 0.515768,-0.775726 0.661353,-1.212474 0.139425,-0.418274 -0.154813,-0.909873 0,-1.322702 0.164616,-0.438978 0.894694,-0.56402 1.212474,-0.881801"
       id="path5" />
    <path
       style="fill:#ffdd55;stroke:#ffdd55;stroke-width:0.18648;paint-order:fill markers stroke"
       d="m 72.388724,91.616166 c -0.932058,1.68905 -0.578122,2.21192 0.237614,3.88161 1.990368,4.07401 1.269508,3.25298 5.838622,7.801104 1.142168,1.13693 2.598005,2.0388 3.757353,3.1638 13.979477,13.56515 0.535743,0.77747 8.096703,9.02782 0.837628,0.914 1.92364,1.66212 2.739542,2.58946 0.937097,1.06509 4.407482,6.44488 6.186022,7.38044 0.34657,0.1823 0.80451,0.13771 1.20676,0.20656 0.40226,0.0688 0.80381,0.27256 1.20676,0.20657 3.53669,-0.57913 5.69741,-3.56863 7.97511,-5.55655 5.25579,-4.58714 0.26565,0.0377 3.25771,-2.76319 0.63751,-0.59676 1.13607,-1.16366 1.70656,-1.7884 1.31076,-1.43537 2.9901,-2.48587 3.63259,-4.2594 0.10465,-0.28882 0.31995,-0.56502 0.31388,-0.86649 -0.008,-0.37957 -0.25818,-0.72938 -0.35347,-1.10076 -0.10899,-0.42468 -0.1658,-0.8574 -0.259,-1.28465 -0.15458,-0.70884 -0.20923,-1.44002 -0.48448,-2.12342 -1.32258,-3.28367 -4.44693,-5.79112 -7.93218,-7.559304 -2.7824,-1.41161 -5.11329,-2.0124 -8.16693,-2.75832 -1.09261,-0.26689 -2.20073,-0.48838 -3.30335,-0.72548 -1.02548,-0.22053 -2.1222,-0.27431 -3.08088,-0.64741 -0.972443,-0.37844 -1.701743,-1.08979 -2.60853,-1.56678 -0.339833,-0.17877 -0.732246,-0.28008 -1.112284,-0.39044 -4.327389,-1.25667 -4.05519,-1.26799 -8.575293,-1.707938 -3.153306,-0.306913 -9.164268,-0.262916 -11.875606,-1.672713 -1.162121,-0.604259 -1.187132,-1.566582 -1.755242,-2.460981 -0.568187,-0.894538 -2.996649,-1.59246 -4.132214,-1.667567"
       id="path6" />
  </g>
</svg>
