<?xml version="1.0" encoding="UTF-8" standalone="no"?>
<!-- Created with Inkscape (http://www.inkscape.org/) -->

<svg
   width="512"
   height="512"
   viewBox="0 0 135.46666 135.46667"
   version="1.1"
   id="svg1"
   inkscape:version="1.3 (0e150ed6c4, 2023-07-21)"
   sodipodi:docname="sky.svg"
   inkscape:export-filename="sky.png"
   inkscape:export-xdpi="96"
   inkscape:export-ydpi="96"
   xmlns:inkscape="http://www.inkscape.org/namespaces/inkscape"
   xmlns:sodipodi="http://sodipodi.sourceforge.net/DTD/sodipodi-0.dtd"
   xmlns="http://www.w3.org/2000/svg"
   xmlns:svg="http://www.w3.org/2000/svg">
  <sodipodi:namedview
     id="namedview1"
     pagecolor="#505050"
     bordercolor="#eeeeee"
     borderopacity="1"
     inkscape:showpageshadow="0"
     inkscape:pageopacity="0"
     inkscape:pagecheckerboard="0"
     inkscape:deskcolor="#505050"
     inkscape:document-units="px"
     inkscape:zoom="2.4003906"
     inkscape:cx="255.7917"
     inkscape:cy="196.21806"
     inkscape:window-width="2560"
     inkscape:window-height="1506"
     inkscape:window-x="-11"
     inkscape:window-y="-11"
     inkscape:window-maximized="1"
     inkscape:current-layer="layer1" />
  <defs
     id="defs1" />
  <g
     inkscape:label="Layer 1"
     inkscape:groupmode="layer"
     id="layer1">
    <rect
       style="fill:#00ffff;stroke:#784421;stroke-width:0.145002;paint-order:fill markers stroke"
       id="rect1"
       width="190.67674"
       height="169.18283"
       x="-25.235195"
       y="-21.707993" />
    <path
       style="fill:#ffffff;stroke:#ffffff;stroke-width:0.132292;paint-order:fill markers stroke"
       d="m 24.800651,33.728884 c 0.183708,-0.551124 0.212069,-1.181645 0.551125,-1.653375 0.530923,-0.738677 1.340811,-1.230585 1.984053,-1.873827 0.863624,-0.863627 1.712288,-1.742879 2.535177,-2.645402 0.532542,-0.584081 1.562062,-2.081812 2.094277,-2.535179 0.0021,-0.0018 3.496966,-2.18512 3.527203,-2.204502 1.340678,-0.859409 3.024198,-2.068721 4.519231,-2.755628 0.676021,-0.310605 1.396868,-0.512538 2.094275,-0.771576 0.588558,-0.218606 1.157883,-0.496155 1.763604,-0.661351 2.349236,-0.640701 6.148139,-0.64186 8.487333,-0.110225 1.659546,0.37717 2.819551,1.18447 4.298778,1.984052 0.621726,0.336068 1.256885,0.647263 1.87383,0.992026 0.632584,0.353505 1.236956,0.756522 1.873827,1.102251 1.295878,0.703478 1.782704,0.680455 2.645402,1.543152 0.208811,0.208813 0.110225,0.698598 0.110225,0.881801 0,0.293934 0.115784,0.611633 0,0.881801 -0.185335,0.432446 -2.50739,1.894437 -2.865853,1.984051 -0.499025,0.124757 -1.029097,-0.01836 -1.543153,0 -1.196369,0.04273 -1.621025,0.139409 -2.755627,0.220451 -0.109945,0.0079 -0.281382,-0.09859 -0.330677,0 -0.04647,0.09295 0.132588,0.164957 0.220451,0.220451 1.777111,1.122384 3.584107,2.025814 5.511258,2.865853 1.057066,0.460772 2.198579,0.744942 3.196526,1.3227 1.041749,0.60312 1.897671,2.001956 2.314729,3.086303 0.03957,0.102878 0,0.220451 0,0.330676 0,0.4409 0.06235,0.886233 0,1.3227 -0.0493,0.345062 -0.252299,0.652391 -0.330677,0.992026 -0.07436,0.32221 0,0.661353 0,0.992026 0,1.06765 -0.552037,1.669516 -1.54315,2.094278 -0.887516,0.380365 -1.882728,0.09174 -2.755628,0.440902 -0.107878,0.04315 -0.01355,0.266226 -0.110225,0.330673 -0.34263,0.22842 -2.293744,-0.241432 -2.755628,0.220451 -0.274439,0.274439 -0.110225,1.226383 -0.110225,1.543153 0,1.58433 0.110225,3.158154 0.110225,4.73968 0,0.862753 0.162579,1.491297 -0.440901,2.2045 -1.107985,1.309439 -0.348311,0.232209 -1.322703,0.881804 -0.172934,0.115289 -0.270629,0.321709 -0.440899,0.440899 -1.726967,1.208878 -3.962878,1.328449 -5.952156,1.763601 -0.55721,0.121891 -1.091875,0.340632 -1.653376,0.440902 -0.471593,0.08421 -0.960393,0.03147 -1.432928,0.110225 -0.413218,0.06887 -0.797766,0.271431 -1.212477,0.330674 -0.907499,0.129643 -1.933297,0.110225 -2.865853,0.110225 -0.25719,0 -0.532778,0.09552 -0.771575,0 -0.09649,-0.0386 -0.137313,-0.158096 -0.220451,-0.220451 -0.240744,-0.180557 -1.175416,-0.572582 -1.432925,-0.551124 -0.797049,0.06642 -0.613738,0.223176 -1.212477,0.440901 -1.125818,0.409388 -0.436599,-0.0021 -1.54315,0.551125 -2.241413,1.120706 -4.293481,2.687902 -6.723732,3.41698 -0.773316,0.231992 -1.876033,0.135771 -2.645405,0 -1.944994,-0.343236 -2.364359,-1.41504 -3.857877,-2.535179 -0.603815,-0.452861 -1.53656,-1.008375 -2.204503,-1.322703 C 23.043574,54.467243 22.563917,54.392977 22.155248,54.120531 22.009701,54.0235 22.02462,53.829336 21.934798,53.679632 21.786266,53.432077 21.054246,52.68084 20.832547,52.57738 20.452928,52.400223 20.017493,52.379178 19.62007,52.246704 19.032383,52.050809 17.632575,51.59698 17.084893,51.254678 c -0.08813,-0.05508 -0.130222,-0.168892 -0.22045,-0.220451 -0.371628,-0.212357 -1.303562,-0.474565 -1.432927,-0.992026 -0.215838,-0.863351 0.518249,-1.340845 0.881801,-1.984052 0.453376,-0.802127 0.673458,-2.012511 1.432926,-2.645402 0.227564,-0.189635 0.528025,-0.272288 0.771576,-0.440899 0.77247,-0.534789 2.224091,-1.802781 2.645403,-2.645405 0.04593,-0.09185 0.03696,-1.432261 0,-1.54315 -0.05809,-0.174282 -0.241459,-0.280311 -0.330675,-0.440902 -0.551126,-0.992026 0.22045,-0.220448 -0.661351,-1.653376 -0.204697,-0.332632 -0.672114,-0.442069 -0.881801,-0.771575 -0.158008,-0.248299 -0.992275,-1.983679 -0.771576,-2.314729 0.04557,-0.06836 0.141758,-0.08662 0.22045,-0.110225 0.290202,-0.08706 0.584011,-0.164613 0.881801,-0.220448 0.330466,-0.06196 0.953257,-0.07267 1.322702,-0.220451 0.144732,-0.05789 0.19125,-0.260964 0.330675,-0.330676 0.270993,-0.135496 0.581161,-0.18287 0.881801,-0.220451 0.17636,-0.02204 0.854244,0.02756 0.992026,0 0.05365,-0.01072 0.06602,-0.727369 0.110225,-0.771576 0.421879,-0.421878 1.113716,-0.171772 1.543152,0 z"
       id="path1" />
    <path
       style="fill:#ffffff;stroke:#ffffff;stroke-width:0.132292;paint-order:fill markers stroke"
       d="m 87.188065,35.712937 c 0.62461,-0.514385 1.282925,-0.990373 1.873827,-1.543151 0.550535,-0.515017 1.001943,-1.128569 1.543151,-1.653378 1.698913,-1.647429 3.568247,-3.108582 5.180581,-4.849905 2.389452,-2.580607 0.580199,-1.105999 4.07833,-3.968104 0.307586,-0.251662 0.627566,-0.502888 0.992026,-0.66135 2.03659,-0.885473 4.05297,-0.694041 6.1726,-0.330676 2.02722,0.347522 3.95645,0.845309 5.84194,1.653377 0.28854,0.12366 0.60738,0.178222 0.8818,0.330676 0.39205,0.217805 0.71568,0.544182 1.10225,0.771575 0.50562,0.297423 1.19007,0.352184 1.54315,0.881801 0.25237,0.378553 0.54639,0.98255 0.77158,1.432926 0.0319,0.06372 0.30901,0.477319 0.22045,0.551127 -0.43797,0.364972 -0.60411,0.468101 -1.10225,0.551124 -0.081,0.01352 -0.29013,0.06668 -0.22046,0.110226 0.57197,0.357478 1.17261,0.666977 1.76361,0.992026 0.24518,0.134847 0.53875,0.175461 0.77157,0.330676 0.032,0.02133 0.18848,0.419584 0.22045,0.440899 0.24491,0.163275 1.96565,0.820526 2.09428,0.992026 0.16789,0.223854 0.18237,0.534292 0.33068,0.771576 0.58633,0.938135 1.48269,1.642686 1.98405,2.645404 0.41067,0.821338 -0.20684,2.176399 0,2.865853 0.50283,1.676104 0.2287,-0.77307 0.55112,1.3227 0.1728,1.123156 -0.3131,2.194912 -0.22045,3.306754 0.067,0.803606 0.69187,1.334532 0.8818,2.094278 0.18117,0.724651 -0.4759,1.310688 -0.11022,2.094277 0.44211,0.947378 1.45699,1.436299 1.98405,2.314726 0.43506,0.725101 0.0103,0.461431 0.4409,1.322703 0.14135,0.282696 0.38548,0.502396 0.55113,0.771575 0.53964,0.876916 0.13841,0.474213 0.66135,1.432928 0.30468,0.558588 0.62879,0.468328 0.55112,1.322699 -0.0116,0.127691 -0.55173,0.496319 -0.66135,0.551127 -0.029,0.01453 -0.32419,-0.0227 -0.33067,0 -0.1466,0.513091 -0.11023,1.019707 -0.11023,1.543151 0,1.246251 0.0445,2.502572 0,3.747653 -0.0869,2.432746 -0.0357,0.857576 -0.4409,3.086304 -0.15392,0.846593 0.003,1.650407 -0.66135,2.314729 -0.73011,0.730109 -1.48334,0.921303 -2.31473,1.432925 -0.26918,0.165647 -0.48888,0.409778 -0.77157,0.551127 -0.45773,0.228862 -0.96528,0.343281 -1.43293,0.551124 -0.82584,0.367038 -1.673,0.711179 -2.42495,1.212477 -1.2806,0.853731 0.35275,0.06612 -0.8818,0.771575 -0.10088,0.05764 -0.23613,0.04269 -0.33068,0.110226 -0.16913,0.120806 -0.255,0.347951 -0.4409,0.440899 -0.58336,0.291682 -1.50716,0.229449 -2.09427,0.330676 -1.55241,0.267658 -3.07942,0.718489 -4.62946,0.992026 -1.55004,0.273537 -3.17372,0.389128 -4.73968,0.551125 -0.47651,0.04929 -0.95944,0.03738 -1.43293,0.110225 -0.48449,0.07454 -0.9494,0.250089 -1.43292,0.330676 -2.08647,0.347745 -4.315807,0.266314 -6.393059,0 -0.41552,-0.05327 -0.804693,-0.234725 -1.212477,-0.330676 -0.202171,-0.04757 -0.857067,-0.115372 -1.102252,-0.220448 -0.347691,-0.149014 -0.648562,-0.392607 -0.992026,-0.551127 -0.697841,-0.32208 -1.42277,-0.646115 -1.873826,-1.322703 -0.155216,-0.23282 -0.213416,-0.517511 -0.330677,-0.771575 -0.437676,-0.948304 -0.628605,-1.945849 -1.322699,-2.755627 -0.355397,-0.414626 -0.992026,-0.7273 -0.992026,-1.322703 0,-0.07348 -0.0647,-0.18561 0,-0.220448 0.450582,-0.242623 0.945724,-0.394525 1.432925,-0.551127 0.96602,-0.310507 3.034845,-0.401823 2.75563,-1.984052 -0.181327,-1.027512 -1.114023,-1.629235 -1.543153,-2.535177 -0.536938,-1.133536 -0.840817,-2.363475 -1.543151,-3.41698 -0.159179,-0.238765 -0.391948,-0.422582 -0.551127,-0.661349 -0.997654,-1.496481 -0.169003,-0.465381 -0.881801,-1.653376 -0.09452,-0.157531 -0.248518,-0.276588 -0.330673,-0.440902 -0.133596,-0.267187 -0.156425,-0.620422 -0.330677,-0.881801 -0.459414,-0.689123 -0.845558,-1.36044 -1.212476,-2.094277 -0.264949,-0.529895 -0.645579,-0.99984 -0.881801,-1.543151 -0.250338,-0.575776 -0.538221,-1.147953 -0.66135,-1.763601 -0.05809,-0.290452 0.314529,-2.034969 0.330674,-2.204503 0.07315,-0.768102 0.04531,-1.544484 0,-2.314729 -0.08411,-1.429821 -0.805413,-1.874327 -0.551125,-3.527202 0.355449,-2.310427 0.17988,-0.64053 0.881801,-1.763602 0.219575,-0.351321 -0.03435,-1.105847 0.110225,-1.322702 0.08152,-0.122283 0.309449,0.06573 0.440899,0 0.03286,-0.01643 -0.02135,-0.08033 0,-0.110225 0.787376,-1.102323 0.389538,-0.176581 0.771578,-1.3227"
       id="path2" />
    <path
       style="fill:#ffffff;stroke:#ffffff;stroke-width:0.132292;paint-order:fill markers stroke"
       d="m 31.524381,75.063301 c 1.196282,-0.384124 2.460689,-0.550746 3.637431,-0.992026 0.846185,-0.317317 1.599115,-0.845436 2.424951,-1.212474 0.829242,-0.368551 1.719771,-0.593804 2.53518,-0.992026 0.770032,-0.376063 1.461428,-0.895832 2.2045,-1.322702 2.747388,-1.578288 4.132924,-2.348979 7.274859,-3.527203 0.60081,-0.225306 1.246404,-0.306454 1.873827,-0.440902 2.716688,-0.582147 4.75547,-0.04842 7.054408,1.543153 0.604173,0.418275 1.184915,0.869815 1.763601,1.3227 0.389271,0.304647 0.700014,0.704715 1.102252,0.992026 0.133707,0.09551 0.30418,0.129305 0.440899,0.220451 0.195749,0.1305 0.345469,0.326647 0.551127,0.440902 0.459859,0.255476 0.978524,0.396282 1.432925,0.66135 0.764934,0.446211 1.218816,0.908917 1.873827,1.432925 0.327122,0.261699 0.706972,0.464595 0.992026,0.771578 0.201565,0.217066 0.288496,0.517567 0.440901,0.771575 0.923227,1.538713 1.223132,2.421451 0.881801,4.298778 -0.04409,0.242496 -0.227391,0.437565 -0.330676,0.661352 -0.117258,0.254061 -0.166095,0.545277 -0.330676,0.771576 -0.138375,0.190264 -0.384771,0.274544 -0.551125,0.440899 -0.232714,0.232714 -0.337338,0.525584 -0.771575,0.551127 -0.513498,0.0302 -1.030544,-0.04272 -1.543153,0 -1.329743,0.11081 -3.91563,0.35955 -5.180579,0.992026 -0.833832,0.416914 -0.935127,1.357886 -1.322702,2.094277 -0.237731,0.451689 -0.543304,0.866156 -0.771576,1.3227 -0.18978,0.379563 -0.04069,0.83544 -0.440901,1.102252 -0.827612,0.551743 -1.912345,0.870738 -2.755628,1.432927 -0.21617,0.144111 -0.345199,0.392721 -0.551124,0.551125 -0.774264,0.595587 -2.669683,1.661355 -3.41698,1.984052 -1.002901,0.43307 -2.062472,0.721291 -3.086304,1.102251 -1.770189,0.658675 -3.465279,1.366737 -5.290804,1.873827 -0.434816,0.120782 -3.418313,0.913485 -3.968104,0.992026 -0.400098,0.05716 -0.808318,0 -1.212477,0 -0.146966,0 -0.299588,0.04038 -0.440899,0 -0.380495,-0.108712 -0.72684,-0.315761 -1.102252,-0.440901 -0.980455,-0.326819 -0.768207,-0.01556 -1.543153,-0.66135 -0.939154,-0.78263 -1.638321,-1.499505 -2.424951,-2.424951 -0.291489,-0.34293 -1.055312,-1.415037 -1.432928,-1.763604 -0.591317,-0.545831 -1.492006,-0.779513 -1.873826,-1.543151 -0.306909,-0.61382 -0.110223,-3.613457 -0.110223,-4.409003 0,-0.551127 0.04774,-1.104324 0,-1.653379 -0.02625,-0.301839 -0.166254,-0.583708 -0.220451,-0.881801 -0.121933,-0.670626 -0.04946,-1.961623 0.220451,-2.535176 0.144235,-0.306501 0.454816,-0.503082 0.66135,-0.771575 0.166168,-0.216022 0.800314,-1.20477 0.8818,-1.432928 0.120619,-0.337728 0.110226,-0.655058 0.110226,-0.992026 0,-0.110226 -0.07794,-0.252736 0,-0.330677 0.155882,-0.155881 0.440899,0 0.66135,0 1.91318,0 1.107791,-0.07794 2.424953,0.110226"
       id="path3" />
  </g>
</svg>
