<?xml version="1.0" encoding="UTF-8" standalone="no"?>
<!-- Created with Inkscape (http://www.inkscape.org/) -->

<svg
   width="512"
   height="512"
   viewBox="0 0 135.46666 135.46667"
   version="1.1"
   id="svg1"
   inkscape:version="1.3 (0e150ed6c4, 2023-07-21)"
   sodipodi:docname="suit.svg"
   inkscape:export-filename="suit.png"
   inkscape:export-xdpi="12"
   inkscape:export-ydpi="12"
   xmlns:inkscape="http://www.inkscape.org/namespaces/inkscape"
   xmlns:sodipodi="http://sodipodi.sourceforge.net/DTD/sodipodi-0.dtd"
   xmlns="http://www.w3.org/2000/svg"
   xmlns:svg="http://www.w3.org/2000/svg">
  <sodipodi:namedview
     id="namedview1"
     pagecolor="#505050"
     bordercolor="#eeeeee"
     borderopacity="1"
     inkscape:showpageshadow="0"
     inkscape:pageopacity="0"
     inkscape:pagecheckerboard="0"
     inkscape:deskcolor="#505050"
     inkscape:document-units="px"
     inkscape:zoom="1.6973325"
     inkscape:cx="259.23029"
     inkscape:cy="290.16118"
     inkscape:window-width="2560"
     inkscape:window-height="1506"
     inkscape:window-x="-11"
     inkscape:window-y="-11"
     inkscape:window-maximized="1"
     inkscape:current-layer="layer1" />
  <defs
     id="defs1" />
  <g
     inkscape:label="Layer 1"
     inkscape:groupmode="layer"
     id="layer1">
    <rect
       style="fill:#000000;stroke:#000000;stroke-width:0.16065;paint-order:fill markers stroke"
       id="rect6"
       width="2.2755034"
       height="6.4249516"
       x="54.805119"
       y="23.824936" />
    <path
       style="fill:#ffdd55;stroke:#ffdd55;stroke-width:0.045326;paint-order:fill markers stroke"
       d="m 40.400325,26.369179 c 0.739011,0 -0.0025,0.01654 1.435088,-0.188829 0.502361,-0.07178 1.012374,-0.09258 1.510621,-0.188827 1.781991,-0.344248 2.579929,-0.764708 4.45633,-1.246263 0.533312,-0.136866 1.079955,-0.216924 1.623918,-0.302123 1.472388,-0.230616 1.671534,-0.09336 3.134538,-0.604247 0.27127,-0.09473 0.49392,-0.296093 0.75531,-0.415422 0.319004,-0.145632 0.6582,-0.24278 0.981901,-0.377654 0.23385,-0.09744 0.43944,-0.259777 0.679779,-0.33989 0.220601,-0.04411 0.430488,-0.07552 0.642016,-0.151062 0.312209,-0.111502 0.569245,-0.324424 0.90637,-0.377656 0.26806,-0.04233 0.531103,-3.75e-4 0.793078,-0.03778 0.121301,-0.01733 0.175426,-0.06944 0.302123,-0.03777 0.01219,0.0029 0.01017,0.03044 0,0.03777 -0.09201,0.06573 -0.57777,0.29185 -0.604249,0.41542 -0.135282,0.631326 0.306363,1.458299 0.03777,2.114869 -0.187964,0.45947 -0.671182,0.661433 -1.057433,0.906373 -0.442324,0.280498 -1.017908,0.580448 -1.435091,0.906371 -0.54937,0.429199 -0.985567,1.00262 -1.623916,1.321793 -0.238582,0.119298 -0.501705,0.181662 -0.755309,0.264358 -0.32557,0.10616 -0.64836,0.224556 -0.981904,0.302125 -0.547721,0.127378 -2.014748,0.09921 -2.265931,0.113301 -0.80685,0.04524 -1.612447,0.112923 -2.416992,0.188827 -1.325167,0.125016 -2.64421,0.329835 -3.965377,0.490952 -0.52231,0.06369 -1.247676,0.229623 -1.737215,0.188828 -0.263854,-0.02199 -0.44732,-0.158803 -0.717543,-0.188828 -0.331548,-0.03685 -0.698551,0.06927 -1.01967,-0.03777"
       id="path3" />
    <path
       style="fill:#ffdd55;stroke:#ffdd55;stroke-width:0.0490988;paint-order:fill markers stroke"
       d="m 42.175155,5.4619226 c -0.753124,0.095021 -1.243167,0.4406728 -1.840903,0.8590882 -0.216906,0.1518341 -0.443604,0.2899736 -0.654542,0.4499968 -0.457699,0.347221 -1.132044,0.914643 -1.268177,1.5136316 -0.08468,0.3725574 -0.03443,0.7634439 -0.0409,1.1454486 -0.0071,0.4226666 -0.0518,0.8486362 0,1.2681772 0.237725,1.925566 0.758244,3.148814 1.718175,4.786346 0.214225,0.365442 0.425666,0.737047 0.695452,1.063632 0.604206,0.731407 1.196272,1.06324 2.004537,1.554537 0.35759,0.217358 1.534632,0.872936 1.922719,1.022725 1.044041,0.402962 1.950151,0.547279 3.06817,0.695452 1.14578,0.151848 2.006967,0.215589 3.149989,0.163635 1.385087,-0.06296 2.745427,-0.398651 4.131801,-0.449999 3.496023,-0.129482 -1.315677,0.166798 2.69999,-0.0409 0.596512,-0.03084 1.474494,-0.04624 1.963627,-0.490907 0.07881,-0.07165 0.178714,-0.142131 0.204545,-0.245453 0.05748,-0.229913 -0.04796,-1.087658 -0.08182,-1.268178 -0.03883,-0.207163 -0.246218,-0.75185 -0.204544,-1.022725 0.03277,-0.213096 0.613102,-0.248624 0.572723,-0.490905 C 60.041908,14.930982 59.198429,14.224553 58.57964,13.439167 58.256212,13.028667 58.051194,12.58345 57.679643,12.2119 56.484715,11.016973 55.060479,10.092402 53.670569,9.1437342 53.320691,8.9049293 52.947962,8.6995637 52.606937,8.4482805 51.959317,7.9710894 52.268832,8.1161921 51.829666,7.5891943 51.508925,7.2043062 50.944797,6.6494077 50.56149,6.361927 49.776533,5.7732095 49.728363,5.8367714 48.925133,5.4619305 48.692966,5.3535808 48.478234,5.1967952 48.229681,5.1346587 47.847924,5.039217 47.472295,5.0778731 47.084232,5.0528361 46.8513,5.0378179 46.621453,4.9896323 46.388778,4.9710136 c -0.108736,-0.00871 -0.218458,0.00773 -0.32727,0 -0.711154,-0.050788 -1.410864,-0.18416 -2.127266,-0.081823 -0.45596,0.065141 -0.83915,0.2736081 -1.268175,0.4090914 -0.164481,0.051943 -0.322119,0.1281003 -0.490907,0.1636353 -0.31918,0.067206 -0.691618,-0.089483 -0.859089,0.2454541 -0.03831,0.076627 0,0.447586 0,0.5727248"
       id="path1" />
    <rect
       style="fill:#4d4d4d;stroke:#000000;stroke-width:0.16065;paint-order:fill markers stroke"
       id="rect5"
       width="25.164392"
       height="4.2833004"
       x="32.585499"
       y="27.438967" />
    <rect
       style="fill:#4d4d4d;stroke:#000000;stroke-width:0.1371;paint-order:fill markers stroke"
       id="rect1"
       width="39.108669"
       height="74.140434"
       x="8.0785999"
       y="0.82817435" />
    <rect
       style="fill:#4d4d4d;stroke:#000000;stroke-width:0.16065;paint-order:fill markers stroke"
       id="rect3"
       width="14.723845"
       height="39.486679"
       x="35.530258"
       y="89.145264" />
    <rect
       style="fill:#4d4d4d;stroke:#000000;stroke-width:0.15788;paint-order:fill markers stroke"
       id="rect3-3"
       width="43.237339"
       height="12.986529"
       x="43.651894"
       y="34.809505" />
    <rect
       style="fill:#4d4d4d;stroke:#000000;stroke-width:0.0958927;paint-order:fill markers stroke"
       id="rect3-3-2"
       width="6.3558593"
       height="32.591076"
       x="82.355713"
       y="25.732187" />
    <rect
       style="fill:#4d4d4d;stroke:#000000;stroke-width:0.18971;paint-order:fill markers stroke"
       id="rect3-4"
       width="16.033316"
       height="50.567429"
       x="5.2345505"
       y="17.895407"
       transform="rotate(-38.451125)" />
    <circle
       style="fill:#000000;stroke:#000000;stroke-width:0.137434;paint-order:fill markers stroke"
       id="path4-7"
       cx="26.06616"
       cy="11.496858"
       r="4.7507806" />
    <circle
       style="fill:#000000;stroke:#000000;stroke-width:0.137434;paint-order:fill markers stroke"
       id="path4-1"
       cx="48.687355"
       cy="40.141426"
       r="4.7507806" />
    <rect
       style="fill:#4d4d4d;stroke:#000000;stroke-width:0.138764;paint-order:fill markers stroke"
       id="rect2"
       width="50.311954"
       height="17.025471"
       x="60.742172"
       y="-11.275743"
       transform="matrix(0.3807942,0.92465982,-0.92401107,0.38236571,0,0)" />
    <circle
       style="fill:#000000;stroke:#000000;stroke-width:0.137434;paint-order:fill markers stroke"
       id="path4-4"
       cx="42.396248"
       cy="94.75351"
       r="4.7507806" />
    <rect
       style="fill:#4d4d4d;stroke:#000000;stroke-width:0.197212;paint-order:fill markers stroke"
       id="rect4"
       width="31.285074"
       height="7.4592142"
       x="31.666807"
       y="127.17788" />
    <circle
       style="fill:#000000;stroke:#000000;stroke-width:0.137434;paint-order:fill markers stroke"
       id="path4"
       cx="28.49036"
       cy="60.956573"
       r="4.7507806" />
    <rect
       style="fill:#4d4d4d;stroke:#000000;stroke-width:0.0850218;paint-order:fill markers stroke"
       id="rect3-3-5"
       width="33.271214"
       height="4.8943458"
       x="82.216423"
       y="53.434345" />
    <rect
       style="fill:#4d4d4d;stroke:#000000;stroke-width:0.0850218;paint-order:fill markers stroke"
       id="rect3-3-5-6"
       width="33.271214"
       height="4.8943458"
       x="82.083351"
       y="25.754204" />
  </g>
</svg>
